{
  "accessors": [
    {
      "bufferView": 2,
      "componentType": 5126,
      "count": 8238,
      "max": [
        0.15199999511241913,
        0.10499999672174454,
        3.4924596548080444e-09
      ],
      "min": [
        -0.15200001001358032,
        -0.096032679080963135,
        -0.0097558489069342613
      ],
      "type": "VEC3"
    },
    {
      "bufferView": 2,
      "byteOffset": 98856,
      "componentType": 5126,
      "count": 8238,
      "max": [
        1,
        1,
        1
      ],
      "min": [
        -1,
        -1,
        -1
      ],
      "type": "VEC3"
    },
    {
      "bufferView": 1,
      "componentType": 5126,
      "count": 8238,
      "max": [
        0.98370927572250366,
        0.99815428256988525
      ],
      "min": [
        0.0092691034078598022,
        0.024381175637245178
      ],
      "type": "VEC2"
    },
    {
      "bufferView": 0,
      "componentType": 5125,
      "count": 24492,
      "max": [
        8237
      ],
      "min": [
        0
      ],
      "type": "SCALAR"
    },
    {
      "bufferView": 2,
      "byteOffset": 197712,
      "componentType": 5126,
      "count": 234,
      "max": [
        0.15200001001358032,
        0.19908371567726135,
        0.0067656631581485271
      ],
      "min": [
        -0.15199998021125793,
        -0.0019489675760269165,
        -0.0046225888654589653
      ],
      "type": "VEC3"
    },
    {
      "bufferView": 2,
      "byteOffset": 200520,
      "componentType": 5126,
      "count": 234,
      "max": [
        1,
        1,
        1
      ],
      "min": [
        -1,
        -1,
        -1
      ],
      "type": "VEC3"
    },
    {
      "bufferView": 1,
      "byteOffset": 65904,
      "componentType": 5126,
      "count": 234,
      "max": [
        0.98429858684539795,
        0.99505758285522461
      ],
      "min": [
        0.012971997261047363,
        0.0068670297041535378
      ],
      "type": "VEC2"
    },
    {
      "bufferView": 0,
      "byteOffset": 97968,
      "componentType": 5125,
      "count": 474,
      "max": [
        233
      ],
      "min": [
        0
      ],
      "type": "SCALAR"
    }
  ],
  "asset": {
    "extras": {
      "author": "Aullwen (https://sketchfab.com/Aullwen)",
      "license": "CC-BY-4.0 (http://creativecommons.org/licenses/by/4.0/)",
      "source": "https://sketchfab.com/3d-models/laptop-7d870e900889481395b4a575b9fa8c3e",
      "title": "Laptop"
    },
    "generator": "Sketchfab-9.31.1",
    "version": "2.0"
  },
  "bufferViews": [
    {
      "buffer": 0,
      "byteLength": 99864,
      "byteOffset": 0,
      "name": "floatBufferViews",
      "target": 34963
    },
    {
      "buffer": 0,
      "byteLength": 67776,
      "byteOffset": 99864,
      "byteStride": 8,
      "name": "floatBufferViews",
      "target": 34962
    },
    {
      "buffer": 0,
      "byteLength": 203328,
      "byteOffset": 167640,
      "byteStride": 12,
      "name": "floatBufferViews",
      "target": 34962
    }
  ],
  "buffers": [
    {
      "byteLength": 370968,
      "uri": "scene.bin"
    }
  ],
  "images": [
    {
      "uri": "textures/ComputerFrame_baseColor.png"
    },
    {
      "uri": "textures/ComputerFrame_emissive.png"
    },
    {
      "uri": "textures/ComputerScreen_baseColor.png"
    },
    {
      "uri": "textures/ComputerScreen_metallicRoughness.png"
    },
    {
      "uri": "textures/ComputerScreen_emissive.png"
    }
  ],
  "materials": [
    {
      "doubleSided": true,
      "emissiveFactor": [
        1,
        1,
        1
      ],
      "emissiveTexture": {
        "index": 1,
        "texCoord": 0
      },
      "name": "ComputerFrame",
      "pbrMetallicRoughness": {
        "baseColorFactor": [
          1,
          1,
          1,
          1
        ],
        "baseColorTexture": {
          "index": 0,
          "texCoord": 0
        },
        "metallicFactor": 0,
        "roughnessFactor": 1
      }
    },
    {
      "doubleSided": true,
      "emissiveFactor": [
        1,
        1,
        1
      ],
      "emissiveTexture": {
        "index": 4,
        "texCoord": 0
      },
      "name": "ComputerScreen",
      "pbrMetallicRoughness": {
        "baseColorFactor": [
          1,
          1,
          1,
          1
        ],
        "baseColorTexture": {
          "index": 2,
          "texCoord": 0
        },
        "metallicFactor": 0,
        "metallicRoughnessTexture": {
          "index": 3,
          "texCoord": 0
        },
        "roughnessFactor": 1
      }
    }
  ],
  "meshes": [
    {
      "name": "Frame_ComputerFrame_0",
      "primitives": [
        {
          "attributes": {
            "NORMAL": 1,
            "POSITION": 0,
            "TEXCOORD_0": 2
          },
          "indices": 3,
          "material": 0,
          "mode": 4
        }
      ]
    },
    {
      "name": "Screen_ComputerScreen_0",
      "primitives": [
        {
          "attributes": {
            "NORMAL": 5,
            "POSITION": 4,
            "TEXCOORD_0": 6
          },
          "indices": 7,
          "material": 1,
          "mode": 4
        }
      ]
    }
  ],
  "nodes": [
    {
      "children": [
        1
      ],
      "name": "RootNode (gltf orientation matrix)",
      "rotation": [
        -0.70710678118654746,
        -0,
        -0,
        0.70710678118654757
      ]
    },
    {
      "children": [
        2
      ],
      "matrix": [
        0.014285130426287651,
        0,
        0,
        0,
        0,
        0.014285130426287651,
        0,
        0,
        0,
        0,
        0.014285130426287651,
        0,
        0,
        0,
        0,
        1
      ],
      "name": "RootNode (model correction matrix)"
    },
    {
      "children": [
        3
      ],
      "matrix": [
        1,
        0,
        0,
        0,
        0,
        0,
        1,
        0,
        0,
        -1,
        0,
        0,
        0,
        0,
        0,
        1
      ],
      "name": "6ea02a75c8644919a6097208f779082b.fbx"
    },
    {
      "children": [
        4,
        6
      ],
      "name": "RootNode"
    },
    {
      "children": [
        5
      ],
      "matrix": [
        100,
        0,
        0,
        0,
        0,
        -1.6292067939183141e-05,
        -99.999999999998678,
        0,
        0,
        99.999999999998678,
        -1.6292067939183141e-05,
        0,
        0,
        0.97554737329483032,
        0,
        1
      ],
      "name": "Frame"
    },
    {
      "mesh": 0,
      "name": "Frame_ComputerFrame_0"
    },
    {
      "children": [
        7
      ],
      "matrix": [
        -99.999999999987125,
        3.2584136956423807e-05,
        3.894143777553012e-05,
        0,
        3.258413525423793e-05,
        99.9999999999946,
        -4.3711491437895978e-06,
        0,
        -3.4360094984494279e-05,
        -3.8568852839585528e-06,
        -88.235298156731517,
        0,
        2.7686186676589841e-13,
        0.65000003576278687,
        -10.30000114440918,
        1
      ],
      "name": "Screen"
    },
    {
      "mesh": 1,
      "name": "Screen_ComputerScreen_0"
    }
  ],
  "samplers": [
    {
      "magFilter": 9729,
      "minFilter": 9987,
      "wrapS": 10497,
      "wrapT": 10497
    }
  ],
  "scene": 0,
  "scenes": [
    {
      "name": "OSG_Scene",
      "nodes": [
        0
      ]
    }
  ],
  "textures": [
    {
      "sampler": 0,
      "source": 0
    },
    {
      "sampler": 0,
      "source": 1
    },
    {
      "sampler": 0,
      "source": 2
    },
    {
      "sampler": 0,
      "source": 3
    },
    {
      "sampler": 0,
      "source": 4
    }
  ]
}

