{
  "accessors": [
    {
      "bufferView": 2,
      "componentType": 5126,
      "count": 1824,
      "max": [
        55.350006103515625,
        99.349990844726562,
        16.750001907348633
      ],
      "min": [
        -55.350006103515625,
        -11.349997520446777,
        -24.451349258422852
      ],
      "type": "VEC3"
    },
    {
      "bufferView": 2,
      "byteOffset": 21888,
      "componentType": 5126,
      "count": 1824,
      "max": [
        0.99835401773452759,
        0.99835044145584106,
        0.99995547533035278
      ],
      "min": [
        -0.99835401773452759,
        -0.99836093187332153,
        -0.99995547533035278
      ],
      "type": "VEC3"
    },
    {
      "bufferView": 3,
      "componentType": 5126,
      "count": 1824,
      "max": [
        0.99999994039535522,
        0.99583494663238525,
        0.9893377423286438,
        1
      ],
      "min": [
        -0.26985830068588257,
        -0.99583536386489868,
        -0.98933917284011841,
        -1
      ],
      "type": "VEC4"
    },
    {
      "bufferView": 1,
      "componentType": 5126,
      "count": 1824,
      "max": [
        55.350006103515625,
        99.349990844726562
      ],
      "min": [
        -55.350006103515625,
        -11.349997520446777
      ],
      "type": "VEC2"
    },
    {
      "bufferView": 0,
      "componentType": 5125,
      "count": 10632,
      "max": [
        1823
      ],
      "min": [
        0
      ],
      "type": "SCALAR"
    },
    {
      "bufferView": 2,
      "byteOffset": 43776,
      "componentType": 5126,
      "count": 272,
      "max": [
        55.5,
        99.5,
        17.55406379699707
      ],
      "min": [
        -55.5,
        -11.499996185302734,
        16.754064559936523
      ],
      "type": "VEC3"
    },
    {
      "bufferView": 2,
      "byteOffset": 47040,
      "componentType": 5126,
      "count": 272,
      "max": [
        0.70632302761077881,
        0.70633924007415771,
        1
      ],
      "min": [
        -0.70632302761077881,
        -0.70632284879684448,
        -1
      ],
      "type": "VEC3"
    },
    {
      "bufferView": 3,
      "byteOffset": 29184,
      "componentType": 5126,
      "count": 272,
      "max": [
        1,
        0.99963223934173584,
        0.70679247379302979,
        1
      ],
      "min": [
        -1,
        -0.99963223934173584,
        -0.70679247379302979,
        -1
      ],
      "type": "VEC4"
    },
    {
      "bufferView": 0,
      "byteOffset": 42528,
      "componentType": 5125,
      "count": 564,
      "max": [
        271
      ],
      "min": [
        0
      ],
      "type": "SCALAR"
    },
    {
      "bufferView": 2,
      "byteOffset": 50304,
      "componentType": 5126,
      "count": 72,
      "max": [
        55.5,
        99.5,
        17.404064178466797
      ],
      "min": [
        -55.5,
        -11.499996185302734,
        16.904064178466797
      ],
      "type": "VEC3"
    },
    {
      "bufferView": 2,
      "byteOffset": 51168,
      "componentType": 5126,
      "count": 72,
      "max": [
        0.99926340579986572,
        0.9992637038230896,
        0
      ],
      "min": [
        -0.99926340579986572,
        -0.99926340579986572,
        0
      ],
      "type": "VEC3"
    },
    {
      "bufferView": 3,
      "byteOffset": 33536,
      "componentType": 5126,
      "count": 72,
      "max": [
        0.99926340579986572,
        0.99926340579986572,
        0,
        1
      ],
      "min": [
        -0.99926376342773438,
        -0.99926340579986572,
        -1.8199208398073097e-06,
        1
      ],
      "type": "VEC4"
    },
    {
      "bufferView": 0,
      "byteOffset": 44784,
      "componentType": 5125,
      "count": 192,
      "max": [
        71
      ],
      "min": [
        0
      ],
      "type": "SCALAR"
    }
  ],
  "asset": {
    "extras": {
      "author": "Render - City (https://sketchfab.com/greshnovk)",
      "license": "CC-BY-4.0 (http://creativecommons.org/licenses/by/4.0/)",
      "source": "https://sketchfab.com/models/6e30dab18dc84a1e9a198dae52bf7592",
      "title": "Coffe Table Avarta"
    },
    "generator": "Sketchfab-3.19.3",
    "version": "2.0"
  },
  "bufferViews": [
    {
      "buffer": 0,
      "byteLength": 45552,
      "byteOffset": 0,
      "name": "floatBufferViews",
      "target": 34963
    },
    {
      "buffer": 0,
      "byteLength": 14592,
      "byteOffset": 45552,
      "byteStride": 8,
      "name": "floatBufferViews",
      "target": 34962
    },
    {
      "buffer": 0,
      "byteLength": 52032,
      "byteOffset": 60144,
      "byteStride": 12,
      "name": "floatBufferViews",
      "target": 34962
    },
    {
      "buffer": 0,
      "byteLength": 34688,
      "byteOffset": 112176,
      "byteStride": 16,
      "name": "floatBufferViews",
      "target": 34962
    }
  ],
  "buffers": [
    {
      "byteLength": 146864,
      "uri": "scene.bin"
    }
  ],
  "images": [
    {
      "uri": "textures/Stoloik_metall_metallicRoughness.png"
    }
  ],
  "materials": [
    {
      "doubleSided": true,
      "name": "Stoloik_metall",
      "pbrMetallicRoughness": {
        "baseColorFactor": [
          0.90228009860000002,
          0.85763991070000001,
          0.85763991070000001,
          1
        ],
        "metallicFactor": 0.95293445119999998,
        "metallicRoughnessTexture": {
          "index": 0,
          "texCoord": 0
        },
        "roughnessFactor": 1
      }
    },
    {
      "alphaMode": "BLEND",
      "doubleSided": true,
      "name": "Stolik_glass",
      "pbrMetallicRoughness": {
        "baseColorFactor": [
          0.0011335017999999999,
          0.0094677496999999999,
          0.019708368899999999,
          0.52267530490000003
        ],
        "metallicFactor": 0,
        "roughnessFactor": 0.40000000000000002
      }
    },
    {
      "doubleSided": true,
      "emissiveFactor": [
        0,
        0,
        0
      ],
      "name": "glass_tor_id3",
      "pbrMetallicRoughness": {
        "baseColorFactor": [
          1,
          1,
          1,
          1
        ],
        "metallicFactor": 0,
        "roughnessFactor": 0.59999999999999998
      }
    }
  ],
  "meshes": [
    {
      "name": "stolik_pauk_Stoloik_metall_0",
      "primitives": [
        {
          "attributes": {
            "NORMAL": 1,
            "POSITION": 0,
            "TANGENT": 2,
            "TEXCOORD_0": 3
          },
          "indices": 4,
          "material": 0,
          "mode": 4
        }
      ]
    },
    {
      "name": "stolik_pauk_Stolik_glass_0",
      "primitives": [
        {
          "attributes": {
            "NORMAL": 6,
            "POSITION": 5,
            "TANGENT": 7
          },
          "indices": 8,
          "material": 1,
          "mode": 4
        }
      ]
    },
    {
      "name": "stolik_pauk_glass_tor_id3_0",
      "primitives": [
        {
          "attributes": {
            "NORMAL": 10,
            "POSITION": 9,
            "TANGENT": 11
          },
          "indices": 12,
          "material": 2,
          "mode": 4
        }
      ]
    }
  ],
  "nodes": [
    {
      "children": [
        1
      ],
      "name": "RootNode (gltf orientation matrix)",
      "rotation": [
        -0.70710678118654746,
        -0,
        -0,
        0.70710678118654757
      ]
    },
    {
      "children": [
        2
      ],
      "name": "RootNode (model correction matrix)"
    },
    {
      "children": [
        3
      ],
      "matrix": [
        1,
        0,
        0,
        0,
        0,
        0,
        1,
        0,
        0,
        -1,
        0,
        0,
        0,
        0,
        0,
        1
      ],
      "name": "Coffe_Table_Avarta.FBX"
    },
    {
      "children": [
        4
      ],
      "name": "RootNode"
    },
    {
      "children": [
        5
      ],
      "matrix": [
        1,
        0,
        0,
        0,
        0,
        2.2204460492503131e-16,
        -1,
        0,
        0,
        1,
        2.2204460492503131e-16,
        0,
        0,
        20.5,
        12.201595306396484,
        1
      ],
      "name": "stolik_pauk"
    },
    {
      "children": [
        6,
        7,
        8
      ],
      "matrix": [
        1,
        0,
        -0,
        0,
        0,
        1,
        0,
        0,
        0,
        0,
        1,
        0,
        0,
        -44,
        4.1000003814697266,
        1
      ],
      "name": ""
    },
    {
      "mesh": 0,
      "name": "stolik_pauk_Stoloik_metall_0"
    },
    {
      "mesh": 1,
      "name": "stolik_pauk_Stolik_glass_0"
    },
    {
      "mesh": 2,
      "name": "stolik_pauk_glass_tor_id3_0"
    }
  ],
  "samplers": [
    {
      "magFilter": 9729,
      "minFilter": 9987,
      "wrapS": 10497,
      "wrapT": 10497
    }
  ],
  "scene": 0,
  "scenes": [
    {
      "name": "OSG_Scene",
      "nodes": [
        0
      ]
    }
  ],
  "textures": [
    {
      "sampler": 0,
      "source": 0
    }
  ]
}

