{
  "accessors": [
    {
      "bufferView": 2,
      "componentType": 5126,
      "count": 24,
      "max": [
        2.2883844375610352,
        20,
        0.69999998807907104
      ],
      "min": [
        -2.2883844375610352,
        -20,
        0
      ],
      "type": "VEC3"
    },
    {
      "bufferView": 2,
      "byteOffset": 288,
      "componentType": 5126,
      "count": 24,
      "max": [
        1,
        1,
        1
      ],
      "min": [
        -1,
        -1,
        -1
      ],
      "type": "VEC3"
    },
    {
      "bufferView": 1,
      "componentType": 5126,
      "count": 24,
      "max": [
        1,
        1
      ],
      "min": [
        0,
        0
      ],
      "type": "VEC2"
    },
    {
      "bufferView": 0,
      "componentType": 5125,
      "count": 36,
      "max": [
        23
      ],
      "min": [
        0
      ],
      "type": "SCALAR"
    },
    {
      "bufferView": 2,
      "byteOffset": 576,
      "componentType": 5126,
      "count": 24,
      "max": [
        114.58968353271484,
        2.2914161682128906,
        0.69999998807907104
      ],
      "min": [
        -114.58968353271484,
        -2.2914161682128906,
        0
      ],
      "type": "VEC3"
    },
    {
      "bufferView": 2,
      "byteOffset": 864,
      "componentType": 5126,
      "count": 24,
      "max": [
        1,
        1,
        1
      ],
      "min": [
        -1,
        -1,
        -1
      ],
      "type": "VEC3"
    },
    {
      "bufferView": 1,
      "byteOffset": 192,
      "componentType": 5126,
      "count": 24,
      "max": [
        1,
        1
      ],
      "min": [
        0,
        0
      ],
      "type": "VEC2"
    },
    {
      "bufferView": 0,
      "byteOffset": 144,
      "componentType": 5125,
      "count": 36,
      "max": [
        23
      ],
      "min": [
        0
      ],
      "type": "SCALAR"
    },
    {
      "bufferView": 2,
      "byteOffset": 1152,
      "componentType": 5126,
      "count": 24,
      "max": [
        2.2942657470703125,
        19.999568939208984,
        0.69999998807907104
      ],
      "min": [
        -2.2942657470703125,
        -19.999568939208984,
        0
      ],
      "type": "VEC3"
    },
    {
      "bufferView": 2,
      "byteOffset": 1440,
      "componentType": 5126,
      "count": 24,
      "max": [
        1,
        1,
        1
      ],
      "min": [
        -1,
        -1,
        -1
      ],
      "type": "VEC3"
    },
    {
      "bufferView": 1,
      "byteOffset": 384,
      "componentType": 5126,
      "count": 24,
      "max": [
        1,
        1
      ],
      "min": [
        0,
        0
      ],
      "type": "VEC2"
    },
    {
      "bufferView": 0,
      "byteOffset": 288,
      "componentType": 5125,
      "count": 36,
      "max": [
        23
      ],
      "min": [
        0
      ],
      "type": "SCALAR"
    },
    {
      "bufferView": 2,
      "byteOffset": 1728,
      "componentType": 5126,
      "count": 24,
      "max": [
        114.59495544433594,
        2.3126420974731445,
        0.69999998807907104
      ],
      "min": [
        -114.59495544433594,
        -2.3126420974731445,
        0
      ],
      "type": "VEC3"
    },
    {
      "bufferView": 2,
      "byteOffset": 2016,
      "componentType": 5126,
      "count": 24,
      "max": [
        1,
        1,
        1
      ],
      "min": [
        -1,
        -1,
        -1
      ],
      "type": "VEC3"
    },
    {
      "bufferView": 1,
      "byteOffset": 576,
      "componentType": 5126,
      "count": 24,
      "max": [
        1,
        1
      ],
      "min": [
        0,
        0
      ],
      "type": "VEC2"
    },
    {
      "bufferView": 0,
      "byteOffset": 432,
      "componentType": 5125,
      "count": 36,
      "max": [
        23
      ],
      "min": [
        0
      ],
      "type": "SCALAR"
    },
    {
      "bufferView": 2,
      "byteOffset": 2304,
      "componentType": 5126,
      "count": 40,
      "max": [
        109.5,
        12.496003150939941,
        0.69999998807907104
      ],
      "min": [
        -109.5,
        -12.496003150939941,
        0
      ],
      "type": "VEC3"
    },
    {
      "bufferView": 2,
      "byteOffset": 2784,
      "componentType": 5126,
      "count": 40,
      "max": [
        1,
        1,
        1
      ],
      "min": [
        -1,
        -1,
        -1
      ],
      "type": "VEC3"
    },
    {
      "bufferView": 1,
      "byteOffset": 768,
      "componentType": 5126,
      "count": 40,
      "max": [
        1,
        1
      ],
      "min": [
        0,
        0
      ],
      "type": "VEC2"
    },
    {
      "bufferView": 0,
      "byteOffset": 576,
      "componentType": 5125,
      "count": 60,
      "max": [
        39
      ],
      "min": [
        0
      ],
      "type": "SCALAR"
    },
    {
      "bufferView": 2,
      "byteOffset": 3264,
      "componentType": 5126,
      "count": 99,
      "max": [
        114.677734375,
        28.752779006958008,
        45.279022216796875
      ],
      "min": [
        -114.67251586914062,
        -25,
        -3.9147298336029053
      ],
      "type": "VEC3"
    },
    {
      "bufferView": 2,
      "byteOffset": 4452,
      "componentType": 5126,
      "count": 99,
      "max": [
        1,
        1,
        1
      ],
      "min": [
        -1,
        -1,
        -1
      ],
      "type": "VEC3"
    },
    {
      "bufferView": 1,
      "byteOffset": 1088,
      "componentType": 5126,
      "count": 99,
      "max": [
        1,
        1
      ],
      "min": [
        0,
        0
      ],
      "type": "VEC2"
    },
    {
      "bufferView": 0,
      "byteOffset": 816,
      "componentType": 5125,
      "count": 165,
      "max": [
        98
      ],
      "min": [
        0
      ],
      "type": "SCALAR"
    },
    {
      "bufferView": 2,
      "byteOffset": 5640,
      "componentType": 5126,
      "count": 20,
      "max": [
        1.31182861328125,
        2.1808156967163086,
        0.90393543243408203
      ],
      "min": [
        -1.31182861328125,
        -2.1808156967163086,
        0
      ],
      "type": "VEC3"
    },
    {
      "bufferView": 2,
      "byteOffset": 5880,
      "componentType": 5126,
      "count": 20,
      "max": [
        1,
        1,
        0
      ],
      "min": [
        -1,
        -1,
        -1
      ],
      "type": "VEC3"
    },
    {
      "bufferView": 1,
      "byteOffset": 1880,
      "componentType": 5126,
      "count": 20,
      "max": [
        1,
        1
      ],
      "min": [
        0,
        0
      ],
      "type": "VEC2"
    },
    {
      "bufferView": 0,
      "byteOffset": 1476,
      "componentType": 5125,
      "count": 30,
      "max": [
        19
      ],
      "min": [
        0
      ],
      "type": "SCALAR"
    },
    {
      "bufferView": 2,
      "byteOffset": 6120,
      "componentType": 5126,
      "count": 20,
      "max": [
        1.31182861328125,
        2.1808156967163086,
        0.90393543243408203
      ],
      "min": [
        -1.31182861328125,
        -2.1808156967163086,
        0
      ],
      "type": "VEC3"
    },
    {
      "bufferView": 2,
      "byteOffset": 6360,
      "componentType": 5126,
      "count": 20,
      "max": [
        1,
        1,
        0
      ],
      "min": [
        -1,
        -1,
        -1
      ],
      "type": "VEC3"
    },
    {
      "bufferView": 1,
      "byteOffset": 2040,
      "componentType": 5126,
      "count": 20,
      "max": [
        1,
        1
      ],
      "min": [
        0,
        0
      ],
      "type": "VEC2"
    },
    {
      "bufferView": 0,
      "byteOffset": 1596,
      "componentType": 5125,
      "count": 30,
      "max": [
        19
      ],
      "min": [
        0
      ],
      "type": "SCALAR"
    },
    {
      "bufferView": 2,
      "byteOffset": 6600,
      "componentType": 5126,
      "count": 20,
      "max": [
        1.31182861328125,
        2.1808156967163086,
        0.90393543243408203
      ],
      "min": [
        -1.31182861328125,
        -2.1808156967163086,
        0
      ],
      "type": "VEC3"
    },
    {
      "bufferView": 2,
      "byteOffset": 6840,
      "componentType": 5126,
      "count": 20,
      "max": [
        1,
        1,
        0
      ],
      "min": [
        -1,
        -1,
        -1
      ],
      "type": "VEC3"
    },
    {
      "bufferView": 1,
      "byteOffset": 2200,
      "componentType": 5126,
      "count": 20,
      "max": [
        1,
        1
      ],
      "min": [
        0,
        0
      ],
      "type": "VEC2"
    },
    {
      "bufferView": 0,
      "byteOffset": 1716,
      "componentType": 5125,
      "count": 30,
      "max": [
        19
      ],
      "min": [
        0
      ],
      "type": "SCALAR"
    },
    {
      "bufferView": 2,
      "byteOffset": 7080,
      "componentType": 5126,
      "count": 20,
      "max": [
        1.31182861328125,
        2.1808156967163086,
        0.90393543243408203
      ],
      "min": [
        -1.31182861328125,
        -2.1808156967163086,
        0
      ],
      "type": "VEC3"
    },
    {
      "bufferView": 2,
      "byteOffset": 7320,
      "componentType": 5126,
      "count": 20,
      "max": [
        1,
        1,
        0
      ],
      "min": [
        -1,
        -1,
        -1
      ],
      "type": "VEC3"
    },
    {
      "bufferView": 1,
      "byteOffset": 2360,
      "componentType": 5126,
      "count": 20,
      "max": [
        1,
        1
      ],
      "min": [
        0,
        0
      ],
      "type": "VEC2"
    },
    {
      "bufferView": 0,
      "byteOffset": 1836,
      "componentType": 5125,
      "count": 30,
      "max": [
        19
      ],
      "min": [
        0
      ],
      "type": "SCALAR"
    },
    {
      "bufferView": 2,
      "byteOffset": 7560,
      "componentType": 5126,
      "count": 24,
      "max": [
        0.29819488525390625,
        10.913097381591797,
        31.008947372436523
      ],
      "min": [
        -0.29819488525390625,
        -10.913097381591797,
        0
      ],
      "type": "VEC3"
    },
    {
      "bufferView": 2,
      "byteOffset": 7848,
      "componentType": 5126,
      "count": 24,
      "max": [
        1,
        1,
        1
      ],
      "min": [
        -1,
        -1,
        -1
      ],
      "type": "VEC3"
    },
    {
      "bufferView": 1,
      "byteOffset": 2520,
      "componentType": 5126,
      "count": 24,
      "max": [
        1,
        1
      ],
      "min": [
        0,
        0
      ],
      "type": "VEC2"
    },
    {
      "bufferView": 0,
      "byteOffset": 1956,
      "componentType": 5125,
      "count": 36,
      "max": [
        23
      ],
      "min": [
        0
      ],
      "type": "SCALAR"
    }
  ],
  "asset": {
    "extras": {
      "author": "EgorKotov (https://sketchfab.com/mkotov671)",
      "license": "CC-BY-4.0 (http://creativecommons.org/licenses/by/4.0/)",
      "source": "https://sketchfab.com/3d-models/tv-table-f72310b7909345bf98156563e907f8ec",
      "title": "TV table"
    },
    "generator": "Sketchfab-9.99.1",
    "version": "2.0"
  },
  "bufferViews": [
    {
      "buffer": 0,
      "byteLength": 2100,
      "byteOffset": 0,
      "name": "floatBufferViews",
      "target": 34963
    },
    {
      "buffer": 0,
      "byteLength": 2712,
      "byteOffset": 2100,
      "byteStride": 8,
      "name": "floatBufferViews",
      "target": 34962
    },
    {
      "buffer": 0,
      "byteLength": 8136,
      "byteOffset": 4812,
      "byteStride": 12,
      "name": "floatBufferViews",
      "target": 34962
    }
  ],
  "buffers": [
    {
      "byteLength": 12948,
      "uri": "scene.bin"
    }
  ],
  "materials": [
    {
      "doubleSided": true,
      "name": "Box005__0",
      "pbrMetallicRoughness": {
        "baseColorFactor": [
          1,
          1,
          1,
          1
        ],
        "metallicFactor": 0,
        "roughnessFactor": 0.59999999999999998
      }
    },
    {
      "doubleSided": true,
      "name": "Material_4",
      "pbrMetallicRoughness": {
        "baseColorFactor": [
          0.16587472411214271,
          0.16587472411214271,
          0.16587472411214271,
          1
        ],
        "metallicFactor": 0.38476095799208365,
        "roughnessFactor": 0.59999999999999998
      }
    },
    {
      "doubleSided": true,
      "name": "Material_3",
      "pbrMetallicRoughness": {
        "baseColorFactor": [
          1,
          1,
          1,
          1
        ],
        "metallicFactor": 0,
        "roughnessFactor": 0.59999999999999998
      }
    },
    {
      "doubleSided": true,
      "name": "Material_5",
      "pbrMetallicRoughness": {
        "baseColorFactor": [
          1,
          1,
          1,
          1
        ],
        "metallicFactor": 0.32395922635876673,
        "roughnessFactor": 0.59999999999999998
      }
    }
  ],
  "meshes": [
    {
      "name": "Plane001_Material #4_0",
      "primitives": [
        {
          "attributes": {
            "NORMAL": 1,
            "POSITION": 0,
            "TEXCOORD_0": 2
          },
          "indices": 3,
          "material": 1,
          "mode": 4
        }
      ]
    },
    {
      "name": "Plane002_Material #4_0",
      "primitives": [
        {
          "attributes": {
            "NORMAL": 5,
            "POSITION": 4,
            "TEXCOORD_0": 6
          },
          "indices": 7,
          "material": 1,
          "mode": 4
        }
      ]
    },
    {
      "name": "Plane003_Material #4_0",
      "primitives": [
        {
          "attributes": {
            "NORMAL": 9,
            "POSITION": 8,
            "TEXCOORD_0": 10
          },
          "indices": 11,
          "material": 1,
          "mode": 4
        }
      ]
    },
    {
      "name": "Plane004_Material #4_0",
      "primitives": [
        {
          "attributes": {
            "NORMAL": 13,
            "POSITION": 12,
            "TEXCOORD_0": 14
          },
          "indices": 15,
          "material": 1,
          "mode": 4
        }
      ]
    },
    {
      "name": "Plane005_Material #4_0",
      "primitives": [
        {
          "attributes": {
            "NORMAL": 17,
            "POSITION": 16,
            "TEXCOORD_0": 18
          },
          "indices": 19,
          "material": 1,
          "mode": 4
        }
      ]
    },
    {
      "name": "Object_Material #3_0",
      "primitives": [
        {
          "attributes": {
            "NORMAL": 21,
            "POSITION": 20,
            "TEXCOORD_0": 22
          },
          "indices": 23,
          "material": 2,
          "mode": 4
        }
      ]
    },
    {
      "name": "Box001_Material #5_0",
      "primitives": [
        {
          "attributes": {
            "NORMAL": 25,
            "POSITION": 24,
            "TEXCOORD_0": 26
          },
          "indices": 27,
          "material": 3,
          "mode": 4
        }
      ]
    },
    {
      "name": "Box002_Material #5_0",
      "primitives": [
        {
          "attributes": {
            "NORMAL": 29,
            "POSITION": 28,
            "TEXCOORD_0": 30
          },
          "indices": 31,
          "material": 3,
          "mode": 4
        }
      ]
    },
    {
      "name": "Box003_Material #5_0",
      "primitives": [
        {
          "attributes": {
            "NORMAL": 33,
            "POSITION": 32,
            "TEXCOORD_0": 34
          },
          "indices": 35,
          "material": 3,
          "mode": 4
        }
      ]
    },
    {
      "name": "Box004_Material #5_0",
      "primitives": [
        {
          "attributes": {
            "NORMAL": 37,
            "POSITION": 36,
            "TEXCOORD_0": 38
          },
          "indices": 39,
          "material": 3,
          "mode": 4
        }
      ]
    },
    {
      "name": "Box005__0",
      "primitives": [
        {
          "attributes": {
            "NORMAL": 41,
            "POSITION": 40,
            "TEXCOORD_0": 42
          },
          "indices": 43,
          "material": 0,
          "mode": 4
        }
      ]
    }
  ],
  "nodes": [
    {
      "children": [
        1
      ],
      "name": "RootNode (gltf orientation matrix)",
      "rotation": [
        -0.70710678118654746,
        -0,
        -0,
        0.70710678118654757
      ]
    },
    {
      "children": [
        2
      ],
      "name": "RootNode (model correction matrix)"
    },
    {
      "children": [
        3
      ],
      "matrix": [
        1,
        0,
        0,
        0,
        0,
        0,
        1,
        0,
        0,
        -1,
        0,
        0,
        0,
        0,
        0,
        1
      ],
      "name": "a9b6743085194663a7a91bf447839f56.fbx"
    },
    {
      "children": [
        4,
        6,
        8,
        10,
        12,
        14,
        16,
        18,
        20,
        22,
        24
      ],
      "name": "RootNode"
    },
    {
      "children": [
        5
      ],
      "matrix": [
        10,
        0,
        0,
        0,
        0,
        8.6577701568602361,
        1.4105298690256294e-06,
        0,
        0,
        -1.1299266655420511e-06,
        6.9354400634764701,
        0,
        1425.02490234375,
        458.06564331054688,
        266.66796875,
        1
      ],
      "name": "Plane001"
    },
    {
      "mesh": 0,
      "name": "Plane001_Material #4_0"
    },
    {
      "children": [
        7
      ],
      "matrix": [
        10,
        0,
        0,
        0,
        0,
        8.9771699905394318,
        1.4625667096212805e-06,
        0,
        0,
        -1.1299266655420509e-06,
        6.9354400634764701,
        0,
        302.1573486328125,
        658.1329345703125,
        266.99325561523438,
        1
      ],
      "name": "Plane002"
    },
    {
      "mesh": 1,
      "name": "Plane002_Material #4_0"
    },
    {
      "children": [
        9
      ],
      "matrix": [
        10,
        0,
        0,
        0,
        0,
        8.6577701568602361,
        1.4105298690256294e-06,
        0,
        0,
        -1.1299266655420511e-06,
        6.9354400634764701,
        0,
        -820.81634521484375,
        457.93585205078125,
        266.99322509765625,
        1
      ],
      "name": "Plane003"
    },
    {
      "mesh": 2,
      "name": "Plane003_Material #4_0"
    },
    {
      "children": [
        11
      ],
      "matrix": [
        10,
        0,
        0,
        0,
        0,
        8.9771699905394318,
        1.4625667096212805e-06,
        0,
        0,
        -1.1299266655420509e-06,
        6.9354400634764701,
        0,
        302.08941650390625,
        257.66290283203125,
        266.25750732421875,
        1
      ],
      "name": "Plane004"
    },
    {
      "mesh": 3,
      "name": "Plane004_Material #4_0"
    },
    {
      "children": [
        13
      ],
      "matrix": [
        10,
        0,
        0,
        0,
        0,
        8.8681001663206818,
        1.4447969788381164e-06,
        0,
        0,
        -1.1299266655420511e-06,
        6.9354400634764701,
        0,
        302.1224365234375,
        391.97982788085938,
        266.24179077148438,
        1
      ],
      "name": "Plane005"
    },
    {
      "mesh": 4,
      "name": "Plane005_Material #4_0"
    },
    {
      "children": [
        15
      ],
      "matrix": [
        10,
        0,
        0,
        0,
        0,
        1.5399770488758874e-15,
        -6.9354400634765625,
        0,
        0,
        8.9771699905395508,
        1.9933321638942016e-15,
        0,
        302.11602783203125,
        272.24441528320312,
        93.227935791015625,
        1
      ],
      "name": "Object"
    },
    {
      "mesh": 5,
      "name": "Object_Material #3_0"
    },
    {
      "children": [
        17
      ],
      "matrix": [
        10,
        0,
        0,
        0,
        0,
        2.2204460492503131e-15,
        -10,
        0,
        0,
        10,
        2.2204460492503131e-15,
        0,
        1428.87451171875,
        227.90115356445312,
        238.1220703125,
        1
      ],
      "name": "Box001"
    },
    {
      "mesh": 6,
      "name": "Box001_Material #5_0"
    },
    {
      "children": [
        19
      ],
      "matrix": [
        10,
        0,
        0,
        0,
        0,
        2.2204460492503131e-15,
        -10,
        0,
        0,
        10,
        2.2204460492503131e-15,
        0,
        1428.698486328125,
        227.90115356445312,
        -78.207443237304688,
        1
      ],
      "name": "Box002"
    },
    {
      "mesh": 7,
      "name": "Box002_Material #5_0"
    },
    {
      "children": [
        21
      ],
      "matrix": [
        10,
        0,
        0,
        0,
        0,
        2.2204460492503131e-15,
        -10,
        0,
        0,
        10,
        2.2204460492503131e-15,
        0,
        -821.92559814453125,
        227.90115356445312,
        237.48025512695312,
        1
      ],
      "name": "Box003"
    },
    {
      "mesh": 8,
      "name": "Box003_Material #5_0"
    },
    {
      "children": [
        23
      ],
      "matrix": [
        10,
        0,
        0,
        0,
        0,
        2.2204460492503131e-15,
        -10,
        0,
        0,
        10,
        2.2204460492503131e-15,
        0,
        -825.9261474609375,
        227.90115356445312,
        -78.280563354492188,
        1
      ],
      "name": "Box004"
    },
    {
      "mesh": 9,
      "name": "Box004_Material #5_0"
    },
    {
      "children": [
        25
      ],
      "matrix": [
        10,
        0,
        0,
        0,
        0,
        9.9999999999998668,
        1.6292068494294582e-06,
        0,
        0,
        -1.6292068494294582e-06,
        9.9999999999998668,
        0,
        560.71112060546875,
        387.56338500976562,
        -47.464733123779297,
        1
      ],
      "name": "Box005"
    },
    {
      "mesh": 10,
      "name": "Box005__0"
    }
  ],
  "scene": 0,
  "scenes": [
    {
      "name": "OSG_Scene",
      "nodes": [
        0
      ]
    }
  ]
}

