{
  "accessors": [
    {
      "bufferView": 2,
      "componentType": 5126,
      "count": 1844,
      "max": [
        24.272430419921875,
        24.272430419921875,
        25.333839416503906
      ],
      "min": [
        -24.272430419921875,
        -24.272439956665039,
        -4.1305160522460938
      ],
      "type": "VEC3"
    },
    {
      "bufferView": 2,
      "byteOffset": 22128,
      "componentType": 5126,
      "count": 1844,
      "max": [
        1,
        1,
        1
      ],
      "min": [
        -1,
        -1,
        -1
      ],
      "type": "VEC3"
    },
    {
      "bufferView": 3,
      "componentType": 5126,
      "count": 1844,
      "max": [
        1,
        1,
        0.19702669978141785,
        1
      ],
      "min": [
        -1,
        -1,
        -0.24779966473579407,
        1
      ],
      "type": "VEC4"
    },
    {
      "bufferView": 1,
      "componentType": 5126,
      "count": 1844,
      "max": [
        0.99949997663497925,
        0.88823091983795166
      ],
      "min": [
        0.00050000002374872565,
        0.00050000002374872565
      ],
      "type": "VEC2"
    },
    {
      "bufferView": 1,
      "byteOffset": 14752,
      "componentType": 5126,
      "count": 1844,
      "max": [
        8.3111848831176758,
        1
      ],
      "min": [
        -13.40878963470459,
        -5.8869237899780273
      ],
      "type": "VEC2"
    },
    {
      "bufferView": 0,
      "componentType": 5125,
      "count": 8460,
      "max": [
        1843
      ],
      "min": [
        0
      ],
      "type": "SCALAR"
    },
    {
      "bufferView": 2,
      "byteOffset": 44256,
      "componentType": 5126,
      "count": 380,
      "max": [
        3.4800539016723633,
        3.4800539016723633,
        8.4035196304321289
      ],
      "min": [
        -3.4800529479980469,
        -3.4800519943237305,
        -1.9340199946637875e-14
      ],
      "type": "VEC3"
    },
    {
      "bufferView": 2,
      "byteOffset": 48816,
      "componentType": 5126,
      "count": 380,
      "max": [
        0.9990050196647644,
        0.99900507926940918,
        1
      ],
      "min": [
        -0.99900507926940918,
        -0.9990050196647644,
        -0.54515987634658813
      ],
      "type": "VEC3"
    },
    {
      "bufferView": 3,
      "byteOffset": 29504,
      "componentType": 5126,
      "count": 380,
      "max": [
        0.85573673248291016,
        0.99284696578979492,
        0.0046929279342293739,
        1
      ],
      "min": [
        -0.72110491991043091,
        -0.94975757598876953,
        -0.9989965558052063,
        1
      ],
      "type": "VEC4"
    },
    {
      "bufferView": 1,
      "byteOffset": 29504,
      "componentType": 5126,
      "count": 380,
      "max": [
        0.94976711273193359,
        0.86598867177963257
      ],
      "min": [
        0.20322020351886749,
        0.66874009370803833
      ],
      "type": "VEC2"
    },
    {
      "bufferView": 1,
      "byteOffset": 32544,
      "componentType": 5126,
      "count": 380,
      "max": [
        1,
        0.99999988079071045
      ],
      "min": [
        3.7945500963587619e-08,
        0
      ],
      "type": "VEC2"
    },
    {
      "bufferView": 0,
      "byteOffset": 33840,
      "componentType": 5125,
      "count": 1944,
      "max": [
        379
      ],
      "min": [
        0
      ],
      "type": "SCALAR"
    },
    {
      "bufferView": 2,
      "byteOffset": 53376,
      "componentType": 5126,
      "count": 6199,
      "max": [
        6.3996448516845703,
        4.4476799964904785,
        0.39584159851074219
      ],
      "min": [
        -6.3996438980102539,
        -7.1852889060974121,
        -11.32306957244873
      ],
      "type": "VEC3"
    },
    {
      "bufferView": 2,
      "byteOffset": 127764,
      "componentType": 5126,
      "count": 6199,
      "max": [
        1,
        1,
        1
      ],
      "min": [
        -1,
        -1,
        -1
      ],
      "type": "VEC3"
    },
    {
      "bufferView": 3,
      "byteOffset": 35584,
      "componentType": 5126,
      "count": 6199,
      "max": [
        1,
        1,
        0.99998778104782104,
        1
      ],
      "min": [
        -0.99999421834945679,
        -0.99670547246932983,
        -0.99999910593032837,
        -1
      ],
      "type": "VEC4"
    },
    {
      "bufferView": 1,
      "byteOffset": 35584,
      "componentType": 5126,
      "count": 6199,
      "max": [
        0.81074738502502441,
        0.86534577608108521
      ],
      "min": [
        0.031220810487866402,
        0.61601108312606812
      ],
      "type": "VEC2"
    },
    {
      "bufferView": 1,
      "byteOffset": 85176,
      "componentType": 5126,
      "count": 6199,
      "max": [
        1,
        0.9980195164680481
      ],
      "min": [
        -0.17027010023593903,
        -3.8271800804068334e-06
      ],
      "type": "VEC2"
    },
    {
      "bufferView": 0,
      "byteOffset": 41616,
      "componentType": 5125,
      "count": 32682,
      "max": [
        6198
      ],
      "min": [
        0
      ],
      "type": "SCALAR"
    },
    {
      "bufferView": 2,
      "byteOffset": 202152,
      "componentType": 5126,
      "count": 2784,
      "max": [
        29.067220687866211,
        17.287420272827148,
        -4.8233871459960938
      ],
      "min": [
        -29.067039489746094,
        -33.376808166503906,
        -128.33979797363281
      ],
      "type": "VEC3"
    },
    {
      "bufferView": 2,
      "byteOffset": 235560,
      "componentType": 5126,
      "count": 2784,
      "max": [
        1,
        0.99923509359359741,
        0.22042092680931091
      ],
      "min": [
        -1,
        -0.99853885173797607,
        -0.99972701072692871
      ],
      "type": "VEC3"
    },
    {
      "bufferView": 3,
      "byteOffset": 134768,
      "componentType": 5126,
      "count": 2784,
      "max": [
        0.98721754550933838,
        0.98818874359130859,
        0.99850672483444214,
        1
      ],
      "min": [
        -0.98720681667327881,
        -0.98668390512466431,
        -0.18410073220729828,
        1
      ],
      "type": "VEC4"
    },
    {
      "bufferView": 1,
      "byteOffset": 134768,
      "componentType": 5126,
      "count": 2784,
      "max": [
        0.83418267965316772,
        0.55705702304840088
      ],
      "min": [
        0.00050000002374872565,
        0.40211990475654602
      ],
      "type": "VEC2"
    },
    {
      "bufferView": 1,
      "byteOffset": 157040,
      "componentType": 5126,
      "count": 2784,
      "max": [
        0.99799990653991699,
        0.3269050121307373
      ],
      "min": [
        0.0020000000949949026,
        0.17001819610595703
      ],
      "type": "VEC2"
    },
    {
      "bufferView": 0,
      "byteOffset": 172344,
      "componentType": 5125,
      "count": 14688,
      "max": [
        2783
      ],
      "min": [
        0
      ],
      "type": "SCALAR"
    },
    {
      "bufferView": 2,
      "byteOffset": 268968,
      "componentType": 5126,
      "count": 132,
      "max": [
        24.039850234985352,
        24.039840698242188,
        25.002359390258789
      ],
      "min": [
        -24.039850234985352,
        -24.039850234985352,
        -3.8117530345916748
      ],
      "type": "VEC3"
    },
    {
      "bufferView": 2,
      "byteOffset": 270552,
      "componentType": 5126,
      "count": 132,
      "max": [
        1,
        1,
        5.5039098612041926e-08
      ],
      "min": [
        -1,
        -1,
        -7.4448102793667204e-08
      ],
      "type": "VEC3"
    },
    {
      "bufferView": 3,
      "byteOffset": 179312,
      "componentType": 5126,
      "count": 132,
      "max": [
        1,
        1,
        0.00026899398653768003,
        1
      ],
      "min": [
        -1,
        -1,
        -0.00024092046078294516,
        1
      ],
      "type": "VEC4"
    },
    {
      "bufferView": 1,
      "byteOffset": 179312,
      "componentType": 5126,
      "count": 132,
      "max": [
        0.99389511346817017,
        0.40035650134086609
      ],
      "min": [
        0.00050000002374872565,
        0.2106935977935791
      ],
      "type": "VEC2"
    },
    {
      "bufferView": 1,
      "byteOffset": 180368,
      "componentType": 5126,
      "count": 132,
      "max": [
        1.6436200141906738,
        0.993480384349823
      ],
      "min": [
        -0.58112061023712158,
        0.0060878428630530834
      ],
      "type": "VEC2"
    },
    {
      "bufferView": 0,
      "byteOffset": 231096,
      "componentType": 5125,
      "count": 384,
      "max": [
        131
      ],
      "min": [
        0
      ],
      "type": "SCALAR"
    },
    {
      "bufferView": 2,
      "byteOffset": 272136,
      "componentType": 5126,
      "count": 4,
      "max": [
        167.02890014648438,
        167.02890014648438,
        0
      ],
      "min": [
        -167.02890014648438,
        -167.02890014648438,
        0
      ],
      "type": "VEC3"
    },
    {
      "bufferView": 2,
      "byteOffset": 272184,
      "componentType": 5126,
      "count": 4,
      "max": [
        0,
        0,
        1
      ],
      "min": [
        0,
        0,
        1
      ],
      "type": "VEC3"
    },
    {
      "bufferView": 3,
      "byteOffset": 181424,
      "componentType": 5126,
      "count": 4,
      "max": [
        1,
        2.3841872121010965e-07,
        0,
        1
      ],
      "min": [
        1,
        1.7881399116959074e-07,
        0,
        1
      ],
      "type": "VEC4"
    },
    {
      "bufferView": 1,
      "byteOffset": 181424,
      "componentType": 5126,
      "count": 4,
      "max": [
        1,
        1
      ],
      "min": [
        2.98022992950564e-08,
        2.98022992950564e-08
      ],
      "type": "VEC2"
    },
    {
      "bufferView": 0,
      "byteOffset": 232632,
      "componentType": 5125,
      "count": 6,
      "max": [
        3
      ],
      "min": [
        0
      ],
      "type": "SCALAR"
    }
  ],
  "asset": {
    "extras": {
      "author": "MADE.COM (https://sketchfab.com/made-it)",
      "license": "CC-BY-NC-4.0 (http://creativecommons.org/licenses/by-nc/4.0/)",
      "source": "https://sketchfab.com/3d-models/eric-floor-lamp-white-ca70b62f13724d09bc67ad80a5ccf0a8",
      "title": "Eric Floor Lamp, White"
    },
    "generator": "Sketchfab-4.47.0",
    "version": "2.0"
  },
  "bufferViews": [
    {
      "buffer": 0,
      "byteLength": 232656,
      "byteOffset": 0,
      "name": "floatBufferViews",
      "target": 34963
    },
    {
      "buffer": 0,
      "byteLength": 181456,
      "byteOffset": 232656,
      "byteStride": 8,
      "name": "floatBufferViews",
      "target": 34962
    },
    {
      "buffer": 0,
      "byteLength": 272232,
      "byteOffset": 414112,
      "byteStride": 12,
      "name": "floatBufferViews",
      "target": 34962
    },
    {
      "buffer": 0,
      "byteLength": 181488,
      "byteOffset": 686344,
      "byteStride": 16,
      "name": "floatBufferViews",
      "target": 34962
    }
  ],
  "buffers": [
    {
      "byteLength": 867832,
      "uri": "scene.bin"
    }
  ],
  "images": [
    {
      "uri": "textures/FLOOR_baseColor.png"
    },
    {
      "uri": "textures/STEEL_GRAY_metallicRoughness.png"
    },
    {
      "uri": "textures/EnvironmentAmbientLight_metallicRoughness.png"
    },
    {
      "uri": "textures/EnvironmentAmbientLight_baseColor.jpeg"
    },
    {
      "uri": "textures/WOOD_metallicRoughness.png"
    },
    {
      "uri": "textures/WOOD_baseColor.jpeg"
    },
    {
      "uri": "textures/LAMP_SHADE_GRAY_metallicRoughness.png"
    },
    {
      "uri": "textures/LAMP_SHADE_GRAY_baseColor.jpeg"
    },
    {
      "uri": "textures/STEEL_WHITE_metallicRoughness.png"
    },
    {
      "uri": "textures/STEEL_WHITE_baseColor.jpeg"
    }
  ],
  "materials": [
    {
      "alphaMode": "BLEND",
      "doubleSided": true,
      "emissiveFactor": [
        0,
        0,
        0
      ],
      "name": "FLOOR",
      "pbrMetallicRoughness": {
        "baseColorFactor": [
          1,
          1,
          1,
          1
        ],
        "baseColorTexture": {
          "index": 0,
          "texCoord": 0
        },
        "metallicFactor": 1,
        "roughnessFactor": 1
      }
    },
    {
      "doubleSided": true,
      "emissiveFactor": [
        0,
        0,
        0
      ],
      "name": "LAMP_SHADE_GRAY",
      "occlusionTexture": {
        "index": 6,
        "strength": 0.99561737800000005,
        "texCoord": 0
      },
      "pbrMetallicRoughness": {
        "baseColorFactor": [
          1,
          1,
          1,
          1
        ],
        "baseColorTexture": {
          "index": 7,
          "texCoord": 0
        },
        "metallicFactor": 0,
        "roughnessFactor": 1
      }
    },
    {
      "alphaMode": "BLEND",
      "doubleSided": true,
      "emissiveFactor": [
        0,
        0,
        0
      ],
      "name": "EnvironmentAmbientLight",
      "occlusionTexture": {
        "index": 2,
        "strength": 1,
        "texCoord": 0
      },
      "pbrMetallicRoughness": {
        "baseColorFactor": [
          1,
          1,
          1,
          0.31
        ],
        "baseColorTexture": {
          "index": 3,
          "texCoord": 0
        },
        "metallicFactor": 0,
        "roughnessFactor": 0.3764617093
      }
    },
    {
      "doubleSided": true,
      "emissiveFactor": [
        0,
        0,
        0
      ],
      "name": "STEEL_GRAY",
      "occlusionTexture": {
        "index": 1,
        "strength": 1,
        "texCoord": 0
      },
      "pbrMetallicRoughness": {
        "baseColorFactor": [
          0.96020838269999997,
          0.96020838269999997,
          0.96020838269999997,
          1
        ],
        "metallicFactor": 0.37976371949999999,
        "roughnessFactor": 0.57488567069999996
      }
    },
    {
      "doubleSided": true,
      "emissiveFactor": [
        0,
        0,
        0
      ],
      "name": "WOOD",
      "occlusionTexture": {
        "index": 4,
        "strength": 1,
        "texCoord": 0
      },
      "pbrMetallicRoughness": {
        "baseColorFactor": [
          1,
          1,
          1,
          1
        ],
        "baseColorTexture": {
          "index": 5,
          "texCoord": 0
        },
        "metallicFactor": 0,
        "roughnessFactor": 0.27610518290000002
      }
    },
    {
      "doubleSided": true,
      "emissiveFactor": [
        0,
        0,
        0
      ],
      "name": "STEEL_WHITE",
      "occlusionTexture": {
        "index": 8,
        "strength": 1,
        "texCoord": 0
      },
      "pbrMetallicRoughness": {
        "baseColorFactor": [
          1,
          1,
          1,
          1
        ],
        "baseColorTexture": {
          "index": 9,
          "texCoord": 0
        },
        "metallicFactor": 0,
        "roughnessFactor": 0.55728781360000001
      }
    }
  ],
  "meshes": [
    {
      "name": "LAMP_SHADE_GRAY",
      "primitives": [
        {
          "attributes": {
            "NORMAL": 1,
            "POSITION": 0,
            "TANGENT": 2,
            "TEXCOORD_0": 3,
            "TEXCOORD_1": 4
          },
          "indices": 5,
          "material": 1,
          "mode": 4
        }
      ]
    },
    {
      "name": "LIGHT_BULB",
      "primitives": [
        {
          "attributes": {
            "NORMAL": 7,
            "POSITION": 6,
            "TANGENT": 8,
            "TEXCOORD_0": 9,
            "TEXCOORD_1": 10
          },
          "indices": 11,
          "material": 2,
          "mode": 4
        }
      ]
    },
    {
      "name": "STEEL_GRAY",
      "primitives": [
        {
          "attributes": {
            "NORMAL": 13,
            "POSITION": 12,
            "TANGENT": 14,
            "TEXCOORD_0": 15,
            "TEXCOORD_1": 16
          },
          "indices": 17,
          "material": 3,
          "mode": 4
        }
      ]
    },
    {
      "name": "WOOD",
      "primitives": [
        {
          "attributes": {
            "NORMAL": 19,
            "POSITION": 18,
            "TANGENT": 20,
            "TEXCOORD_0": 21,
            "TEXCOORD_1": 22
          },
          "indices": 23,
          "material": 4,
          "mode": 4
        }
      ]
    },
    {
      "name": "STEEL_WHITE",
      "primitives": [
        {
          "attributes": {
            "NORMAL": 25,
            "POSITION": 24,
            "TANGENT": 26,
            "TEXCOORD_0": 27,
            "TEXCOORD_1": 28
          },
          "indices": 29,
          "material": 5,
          "mode": 4
        }
      ]
    },
    {
      "name": "FLOOR",
      "primitives": [
        {
          "attributes": {
            "NORMAL": 31,
            "POSITION": 30,
            "TANGENT": 32,
            "TEXCOORD_0": 33
          },
          "indices": 34,
          "material": 0,
          "mode": 4
        }
      ]
    }
  ],
  "nodes": [
    {
      "children": [
        1
      ],
      "name": "RootNode (gltf orientation matrix)",
      "rotation": [
        -0.70710678118654746,
        -0,
        -0,
        0.70710678118654757
      ]
    },
    {
      "children": [
        2
      ],
      "name": "RootNode (model correction matrix)"
    },
    {
      "children": [
        3,
        10,
        12
      ],
      "name": "Collada visual scene group"
    },
    {
      "children": [
        4
      ],
      "name": "Eric_Floor_Lamp_Charcoal"
    },
    {
      "children": [
        5,
        6,
        7,
        8,
        9
      ],
      "matrix": [
        1,
        0,
        0,
        0,
        0,
        1,
        0,
        0,
        0,
        0,
        1,
        0,
        0,
        0,
        128.46610000000001,
        1
      ],
      "name": ""
    },
    {
      "mesh": 0,
      "name": "LAMP_SHADE_GRAY"
    },
    {
      "mesh": 1,
      "name": "LIGHT_BULB"
    },
    {
      "mesh": 2,
      "name": "STEEL_GRAY"
    },
    {
      "mesh": 3,
      "name": "WOOD"
    },
    {
      "mesh": 4,
      "name": "STEEL_WHITE"
    },
    {
      "children": [
        11
      ],
      "name": "Plane001"
    },
    {
      "mesh": 5,
      "name": "FLOOR"
    },
    {
      "children": [
        13
      ],
      "name": "EnvironmentAmbientLight"
    },
    {
      "name": "EnvironmentAmbientLight"
    }
  ],
  "samplers": [
    {
      "magFilter": 9729,
      "minFilter": 9987,
      "wrapS": 10497,
      "wrapT": 10497
    }
  ],
  "scene": 0,
  "scenes": [
    {
      "name": "OSG_Scene",
      "nodes": [
        0
      ]
    }
  ],
  "textures": [
    {
      "sampler": 0,
      "source": 0
    },
    {
      "sampler": 0,
      "source": 1
    },
    {
      "sampler": 0,
      "source": 2
    },
    {
      "sampler": 0,
      "source": 3
    },
    {
      "sampler": 0,
      "source": 4
    },
    {
      "sampler": 0,
      "source": 5
    },
    {
      "sampler": 0,
      "source": 6
    },
    {
      "sampler": 0,
      "source": 7
    },
    {
      "sampler": 0,
      "source": 8
    },
    {
      "sampler": 0,
      "source": 9
    }
  ]
}

