{
  "accessors": [
    {
      "bufferView": 2,
      "componentType": 5126,
      "count": 41309,
      "max": [
        0.41073745489120483,
        0.56230288743972778,
        0.38634034991264343
      ],
      "min": [
        -0.41007629036903381,
        -0.45320034027099609,
        -0.41914793848991394
      ],
      "type": "VEC3"
    },
    {
      "bufferView": 2,
      "byteOffset": 495708,
      "componentType": 5126,
      "count": 41309,
      "max": [
        0.99996733665466309,
        1,
        0.99999845027923584
      ],
      "min": [
        -0.99996697902679443,
        -0.99999129772186279,
        -0.9999992847442627
      ],
      "type": "VEC3"
    },
    {
      "bufferView": 1,
      "componentType": 5126,
      "count": 41309,
      "max": [
        0.91667938232421875,
        0.87958139181137085
      ],
      "min": [
        0.069716557860374451,
        0.012960907071828842
      ],
      "type": "VEC2"
    },
    {
      "bufferView": 0,
      "componentType": 5125,
      "count": 202176,
      "max": [
        41308
      ],
      "min": [
        0
      ],
      "type": "SCALAR"
    },
    {
      "bufferView": 2,
      "byteOffset": 991416,
      "componentType": 5126,
      "count": 2772,
      "max": [
        0.17541496455669403,
        0.043460644781589508,
        0.17541499435901642
      ],
      "min": [
        -0.17541505396366119,
        -0.016900870949029922,
        -0.17541502416133881
      ],
      "type": "VEC3"
    },
    {
      "bufferView": 2,
      "byteOffset": 1024680,
      "componentType": 5126,
      "count": 2772,
      "max": [
        1,
        1,
        1
      ],
      "min": [
        -1,
        -1,
        -1
      ],
      "type": "VEC3"
    },
    {
      "bufferView": 1,
      "byteOffset": 330472,
      "componentType": 5126,
      "count": 2772,
      "max": [
        1.1616871356964111,
        1.1748049259185791
      ],
      "min": [
        -0.17285048961639404,
        -0.17480489611625671
      ],
      "type": "VEC2"
    },
    {
      "bufferView": 0,
      "byteOffset": 808704,
      "componentType": 5125,
      "count": 13344,
      "max": [
        2771
      ],
      "min": [
        0
      ],
      "type": "SCALAR"
    },
    {
      "bufferView": 2,
      "byteOffset": 1057944,
      "componentType": 5126,
      "count": 728,
      "max": [
        0.1764494776725769,
        -0.015432007610797882,
        0.17644929885864258
      ],
      "min": [
        -0.17644909024238586,
        -0.019750187173485756,
        -0.176449254155159
      ],
      "type": "VEC3"
    },
    {
      "bufferView": 2,
      "byteOffset": 1066680,
      "componentType": 5126,
      "count": 728,
      "max": [
        1,
        1,
        1
      ],
      "min": [
        -1,
        -1,
        -1
      ],
      "type": "VEC3"
    },
    {
      "bufferView": 1,
      "byteOffset": 352648,
      "componentType": 5126,
      "count": 728,
      "max": [
        0.60564112663269043,
        0.59881407022476196
      ],
      "min": [
        0.39435881376266479,
        0.38991457223892212
      ],
      "type": "VEC2"
    },
    {
      "bufferView": 0,
      "byteOffset": 862080,
      "componentType": 5125,
      "count": 3120,
      "max": [
        727
      ],
      "min": [
        0
      ],
      "type": "SCALAR"
    },
    {
      "bufferView": 2,
      "byteOffset": 1075416,
      "componentType": 5126,
      "count": 320,
      "max": [
        0.012788832187652588,
        0.0084406584501266479,
        0.013670343905687332
      ],
      "min": [
        -0.012046143412590027,
        -0.0070589631795883179,
        -0.013451140373945236
      ],
      "type": "VEC3"
    },
    {
      "bufferView": 2,
      "byteOffset": 1079256,
      "componentType": 5126,
      "count": 320,
      "max": [
        0.98347026109695435,
        0.92358493804931641,
        0.98992234468460083
      ],
      "min": [
        -0.8713533878326416,
        -0.99487811326980591,
        -0.98701828718185425
      ],
      "type": "VEC3"
    },
    {
      "bufferView": 0,
      "byteOffset": 874560,
      "componentType": 5125,
      "count": 960,
      "max": [
        319
      ],
      "min": [
        0
      ],
      "type": "SCALAR"
    },
    {
      "bufferView": 3,
      "componentType": 5126,
      "count": 251,
      "max": [
        20.833333969116211
      ],
      "min": [
        0.041666667908430099
      ],
      "type": "SCALAR"
    },
    {
      "bufferView": 4,
      "componentType": 5126,
      "count": 251,
      "max": [
        0,
        0.99995523691177368,
        -0,
        1
      ],
      "min": [
        0,
        -0.99959719181060791,
        -0,
        -0.0094623779878020287
      ],
      "type": "VEC4"
    },
    {
      "bufferView": 3,
      "byteOffset": 1004,
      "componentType": 5126,
      "count": 250,
      "max": [
        10.416666984558105
      ],
      "min": [
        0.041666667908430099
      ],
      "type": "SCALAR"
    },
    {
      "bufferView": 4,
      "byteOffset": 4016,
      "componentType": 5126,
      "count": 250,
      "max": [
        0,
        0.99995523691177368,
        -0,
        1
      ],
      "min": [
        0,
        -0.99959719181060791,
        -0,
        -0.0094623779878020287
      ],
      "type": "VEC4"
    }
  ],
  "animations": [
    {
      "channels": [
        {
          "sampler": 0,
          "target": {
            "node": 4,
            "path": "rotation"
          }
        }
      ],
      "name": "Action",
      "samplers": [
        {
          "input": 15,
          "interpolation": "LINEAR",
          "output": 16
        }
      ]
    },
    {
      "channels": [
        {
          "sampler": 0,
          "target": {
            "node": 4,
            "path": "rotation"
          }
        }
      ],
      "name": "Egg Chair",
      "samplers": [
        {
          "input": 17,
          "interpolation": "LINEAR",
          "output": 18
        }
      ]
    }
  ],
  "asset": {
    "extras": {
      "author": "CreativeMachine (https://sketchfab.com/personpersonperson)",
      "license": "CC-BY-4.0 (http://creativecommons.org/licenses/by/4.0/)",
      "source": "https://sketchfab.com/3d-models/egg-chair-a47b72a618e846ff81a39bcac9d2dbe5",
      "title": "Egg Chair"
    },
    "generator": "Sketchfab-8.59.0",
    "version": "2.0"
  },
  "bufferViews": [
    {
      "buffer": 0,
      "byteLength": 878400,
      "byteOffset": 0,
      "name": "floatBufferViews",
      "target": 34963
    },
    {
      "buffer": 0,
      "byteLength": 358472,
      "byteOffset": 878400,
      "byteStride": 8,
      "name": "floatBufferViews",
      "target": 34962
    },
    {
      "buffer": 0,
      "byteLength": 1083096,
      "byteOffset": 1236872,
      "byteStride": 12,
      "name": "floatBufferViews",
      "target": 34962
    },
    {
      "buffer": 0,
      "byteLength": 2004,
      "byteOffset": 2319968,
      "name": "floatBufferViews"
    },
    {
      "buffer": 0,
      "byteLength": 8016,
      "byteOffset": 2321972,
      "byteStride": 16,
      "name": "floatBufferViews"
    }
  ],
  "buffers": [
    {
      "byteLength": 2329988,
      "uri": "scene.bin"
    }
  ],
  "materials": [
    {
      "doubleSided": true,
      "emissiveFactor": [
        0,
        0,
        0
      ],
      "name": "Leather",
      "pbrMetallicRoughness": {
        "baseColorFactor": [
          1,
          1,
          1,
          1
        ],
        "metallicFactor": 1,
        "roughnessFactor": 1
      }
    },
    {
      "doubleSided": true,
      "emissiveFactor": [
        0,
        0,
        0
      ],
      "name": "BB_025_007",
      "pbrMetallicRoughness": {
        "baseColorFactor": [
          0.55200000000000005,
          0.57099999999999995,
          0.57099999999999995,
          1
        ],
        "metallicFactor": 1,
        "roughnessFactor": 0.12862299999999999
      }
    },
    {
      "doubleSided": true,
      "emissiveFactor": [
        0,
        0,
        0
      ],
      "name": "BB_025_006",
      "pbrMetallicRoughness": {
        "baseColorFactor": [
          0.021999999999999999,
          0.021999999999999999,
          0.021999999999999999,
          1
        ],
        "metallicFactor": 0,
        "roughnessFactor": 0.28999999999999998
      }
    }
  ],
  "meshes": [
    {
      "primitives": [
        {
          "attributes": {
            "NORMAL": 1,
            "POSITION": 0,
            "TEXCOORD_0": 2
          },
          "indices": 3,
          "material": 0,
          "mode": 4
        }
      ]
    },
    {
      "primitives": [
        {
          "attributes": {
            "NORMAL": 5,
            "POSITION": 4,
            "TEXCOORD_0": 6
          },
          "indices": 7,
          "material": 1,
          "mode": 4
        }
      ]
    },
    {
      "primitives": [
        {
          "attributes": {
            "NORMAL": 9,
            "POSITION": 8,
            "TEXCOORD_0": 10
          },
          "indices": 11,
          "material": 2,
          "mode": 4
        }
      ]
    },
    {
      "primitives": [
        {
          "attributes": {
            "NORMAL": 13,
            "POSITION": 12
          },
          "indices": 14,
          "material": 1,
          "mode": 4
        }
      ]
    }
  ],
  "nodes": [
    {
      "children": [
        1
      ],
      "name": "RootNode (gltf orientation matrix)",
      "rotation": [
        -0.70710678118654746,
        -0,
        -0,
        0.70710678118654757
      ]
    },
    {
      "children": [
        2
      ],
      "name": "RootNode (model correction matrix)"
    },
    {
      "children": [
        3
      ],
      "name": "root"
    },
    {
      "children": [
        4
      ],
      "matrix": [
        1,
        0,
        0,
        0,
        0,
        2.2204460492503131e-16,
        1,
        0,
        0,
        -1,
        2.2204460492503131e-16,
        0,
        0,
        0,
        0,
        1
      ],
      "name": "GLTF_SceneRootNode"
    },
    {
      "children": [
        5,
        6,
        9
      ],
      "name": "Egg Chair _2",
      "translation": [
        -0.015417363494634628,
        7.8313052654266357e-05,
        0.0037159374915063381
      ]
    },
    {
      "mesh": 0,
      "name": ""
    },
    {
      "children": [
        7,
        8
      ],
      "matrix": [
        1.4917799144723212,
        0,
        -1.4917796443988149,
        0,
        0,
        2.1096954345703125,
        0,
        0,
        1.4917796443988149,
        0,
        1.4917799144723212,
        0,
        0.000330386683344841,
        -0.52352017164230347,
        0.028721984475851059,
        1
      ],
      "name": "BB_025_003_0"
    },
    {
      "mesh": 1,
      "name": ""
    },
    {
      "mesh": 2,
      "name": ""
    },
    {
      "children": [
        10
      ],
      "matrix": [
        0.89592874050140381,
        0,
        0,
        0,
        0,
        0.89592874050140381,
        0,
        0,
        0,
        0,
        0.89592874050140381,
        0,
        -0.17388692498207092,
        -0.40865695476531982,
        -0.029199186712503433,
        1
      ],
      "name": "BB_025_004_1"
    },
    {
      "mesh": 3,
      "name": ""
    }
  ],
  "scene": 0,
  "scenes": [
    {
      "name": "OSG_Scene",
      "nodes": [
        0
      ]
    }
  ]
}

