{
  "accessors": [
    {
      "bufferView": 2,
      "componentType": 5126,
      "count": 189,
      "max": [
        0.20391000807285309,
        0.082861252129077911,
        0.20391000807285309
      ],
      "min": [
        -0.20391000807285309,
        -0.040489785373210907,
        -0.20391000807285309
      ],
      "type": "VEC3"
    },
    {
      "bufferView": 2,
      "byteOffset": 2268,
      "componentType": 5126,
      "count": 189,
      "max": [
        1,
        0.99996256828308105,
        1
      ],
      "min": [
        -1,
        -1,
        -1
      ],
      "type": "VEC3"
    },
    {
      "bufferView": 3,
      "componentType": 5126,
      "count": 189,
      "max": [
        1,
        0.038976918905973434,
        1,
        -1
      ],
      "min": [
        -1,
        -0.038976918905973434,
        -1,
        -1
      ],
      "type": "VEC4"
    },
    {
      "bufferView": 1,
      "componentType": 5126,
      "count": 189,
      "max": [
        0.97894501686096191,
        0.53780806064605713
      ],
      "min": [
        0.010750001296401024,
        0.01154094934463501
      ],
      "type": "VEC2"
    },
    {
      "bufferView": 0,
      "componentType": 5125,
      "count": 642,
      "max": [
        188
      ],
      "min": [
        0
      ],
      "type": "SCALAR"
    },
    {
      "bufferView": 2,
      "byteOffset": 4536,
      "componentType": 5126,
      "count": 462,
      "max": [
        0.12256081402301788,
        0.0044915424659848213,
        0.13270394504070282
      ],
      "min": [
        -0.12690733373165131,
        -0.082861252129077911,
        -0.16962769627571106
      ],
      "type": "VEC3"
    },
    {
      "bufferView": 2,
      "byteOffset": 10080,
      "componentType": 5126,
      "count": 462,
      "max": [
        0.9999842643737793,
        1,
        0.9999842643737793
      ],
      "min": [
        -0.9999842643737793,
        -1,
        -0.9999842643737793
      ],
      "type": "VEC3"
    },
    {
      "bufferView": 3,
      "byteOffset": 3024,
      "componentType": 5126,
      "count": 462,
      "max": [
        0.0056083858944475651,
        1,
        0.99998432397842407,
        -1
      ],
      "min": [
        -0.0056084468960762024,
        -1,
        -0.99998432397842407,
        -1
      ],
      "type": "VEC4"
    },
    {
      "bufferView": 1,
      "byteOffset": 1512,
      "componentType": 5126,
      "count": 462,
      "max": [
        0.97075557708740234,
        0.80870234966278076
      ],
      "min": [
        0.044651549309492111,
        0.19129759073257446
      ],
      "type": "VEC2"
    },
    {
      "bufferView": 0,
      "byteOffset": 2568,
      "componentType": 5125,
      "count": 1296,
      "max": [
        461
      ],
      "min": [
        0
      ],
      "type": "SCALAR"
    },
    {
      "bufferView": 4,
      "componentType": 5126,
      "count": 405,
      "max": [
        17.708333969116211
      ],
      "min": [
        0
      ],
      "type": "SCALAR"
    },
    {
      "bufferView": 5,
      "componentType": 5126,
      "count": 405,
      "max": [
        1.4331676959991455,
        0.12469100952148438,
        -4.4951925277709961
      ],
      "min": [
        -3.3180840015411377,
        0.081265285611152649,
        -8.7105865478515625
      ],
      "type": "VEC3"
    },
    {
      "bufferView": 4,
      "byteOffset": 1620,
      "componentType": 5126,
      "count": 95,
      "max": [
        17.708333969116211
      ],
      "min": [
        0
      ],
      "type": "SCALAR"
    },
    {
      "bufferView": 6,
      "componentType": 5126,
      "count": 95,
      "max": [
        0.0018024749588221312,
        0.99997568130493164,
        0.044525954872369766,
        1
      ],
      "min": [
        -0.050860833376646042,
        -0.85510146617889404,
        -0.0035220098216086626,
        -0.43769717216491699
      ],
      "type": "VEC4"
    }
  ],
  "animations": [
    {
      "channels": [
        {
          "sampler": 0,
          "target": {
            "node": 5,
            "path": "translation"
          }
        },
        {
          "sampler": 1,
          "target": {
            "node": 5,
            "path": "rotation"
          }
        }
      ],
      "name": "CINEMA_4D_Main",
      "samplers": [
        {
          "input": 10,
          "interpolation": "LINEAR",
          "output": 11
        },
        {
          "input": 12,
          "interpolation": "LINEAR",
          "output": 13
        }
      ]
    }
  ],
  "asset": {
    "extras": {
      "author": "el_kenjin (https://sketchfab.com/el_kenjin)",
      "license": "CC-BY-4.0 (http://creativecommons.org/licenses/by/4.0/)",
      "source": "https://sketchfab.com/3d-models/oculus-home-moving-roomba-b2090d8f0c5444abafeafd32dd2a67a2",
      "title": "Oculus home- moving roomba"
    },
    "generator": "Sketchfab-4.86.2",
    "version": "2.0"
  },
  "bufferViews": [
    {
      "buffer": 0,
      "byteLength": 7752,
      "byteOffset": 0,
      "name": "floatBufferViews",
      "target": 34963
    },
    {
      "buffer": 0,
      "byteLength": 5208,
      "byteOffset": 7752,
      "byteStride": 8,
      "name": "floatBufferViews",
      "target": 34962
    },
    {
      "buffer": 0,
      "byteLength": 15624,
      "byteOffset": 12960,
      "byteStride": 12,
      "name": "floatBufferViews",
      "target": 34962
    },
    {
      "buffer": 0,
      "byteLength": 10416,
      "byteOffset": 28584,
      "byteStride": 16,
      "name": "floatBufferViews",
      "target": 34962
    },
    {
      "buffer": 0,
      "byteLength": 2000,
      "byteOffset": 39000,
      "name": "floatBufferViews"
    },
    {
      "buffer": 0,
      "byteLength": 4860,
      "byteOffset": 41000,
      "byteStride": 12,
      "name": "floatBufferViews"
    },
    {
      "buffer": 0,
      "byteLength": 1520,
      "byteOffset": 45860,
      "byteStride": 16,
      "name": "floatBufferViews"
    }
  ],
  "buffers": [
    {
      "byteLength": 47380,
      "uri": "scene.bin"
    }
  ],
  "images": [
    {
      "uri": "textures/material_baseColor.jpeg"
    },
    {
      "uri": "textures/Mat.1_baseColor.jpeg"
    }
  ],
  "materials": [
    {
      "doubleSided": false,
      "emissiveFactor": [
        0,
        0,
        0
      ],
      "name": "material",
      "pbrMetallicRoughness": {
        "baseColorFactor": [
          1,
          1,
          1,
          1
        ],
        "baseColorTexture": {
          "index": 0,
          "texCoord": 0
        },
        "metallicFactor": 0.20000000000000001,
        "roughnessFactor": 0.80000000000000004
      }
    },
    {
      "doubleSided": false,
      "emissiveFactor": [
        0,
        0,
        0
      ],
      "name": "Mat.1",
      "pbrMetallicRoughness": {
        "baseColorFactor": [
          1,
          1,
          1,
          1
        ],
        "baseColorTexture": {
          "index": 1,
          "texCoord": 0
        },
        "metallicFactor": 0.20000000000000001,
        "roughnessFactor": 0.80000000000000004
      }
    }
  ],
  "meshes": [
    {
      "primitives": [
        {
          "attributes": {
            "NORMAL": 1,
            "POSITION": 0,
            "TANGENT": 2,
            "TEXCOORD_0": 3
          },
          "indices": 4,
          "material": 0,
          "mode": 4
        }
      ]
    },
    {
      "primitives": [
        {
          "attributes": {
            "NORMAL": 6,
            "POSITION": 5,
            "TANGENT": 7,
            "TEXCOORD_0": 8
          },
          "indices": 9,
          "material": 1,
          "mode": 4
        }
      ]
    }
  ],
  "nodes": [
    {
      "children": [
        1
      ],
      "name": "RootNode (gltf orientation matrix)",
      "rotation": [
        -0.70710678118654746,
        -0,
        -0,
        0.70710678118654757
      ]
    },
    {
      "children": [
        2
      ],
      "name": "RootNode (model correction matrix)"
    },
    {
      "children": [
        3
      ],
      "name": "root"
    },
    {
      "children": [
        4
      ],
      "matrix": [
        1,
        0,
        0,
        0,
        0,
        2.2204460492503131e-16,
        1,
        0,
        0,
        -1,
        2.2204460492503131e-16,
        0,
        0,
        0,
        0,
        1
      ],
      "name": "GLTF_SceneRootNode"
    },
    {
      "children": [
        5
      ],
      "name": "RootNode_0"
    },
    {
      "children": [
        6,
        7
      ],
      "name": "the_real_roomba_1",
      "translation": [
        -2.1356754302978516,
        0.090268321335315704,
        -5.0307831764221191
      ]
    },
    {
      "mesh": 0,
      "name": ""
    },
    {
      "mesh": 1,
      "name": ""
    }
  ],
  "samplers": [
    {
      "magFilter": 9729,
      "minFilter": 9987,
      "wrapS": 10497,
      "wrapT": 10497
    }
  ],
  "scene": 0,
  "scenes": [
    {
      "name": "OSG_Scene",
      "nodes": [
        0
      ]
    }
  ],
  "textures": [
    {
      "sampler": 0,
      "source": 0
    },
    {
      "sampler": 0,
      "source": 1
    }
  ]
}

